<?xml version="1.0" encoding="UTF-8" standalone="no"?><!DOCTYPE svg PUBLIC "-//W3C//DTD SVG 1.1//EN" "http://www.w3.org/Graphics/SVG/1.1/DTD/svg11.dtd"><svg width="100%" height="100%" viewBox="0 0 4267 4267" version="1.1" xmlns="http://www.w3.org/2000/svg" xmlns:xlink="http://www.w3.org/1999/xlink" xml:space="preserve" xmlns:serif="http://www.serif.com/" style="fill-rule:evenodd;clip-rule:evenodd;stroke-linejoin:round;stroke-miterlimit:2;"><g id="Background"><rect x="0" y="0" width="4266.67" height="4266.67" style="fill:#fff7ea;"/></g><g id="JPL-Background" serif:id="JPL Background"><g><path d="M4032.54,424.105l-0,3470.59c-0,101.871 -82.706,184.577 -184.577,184.577l-3427.49,-0c-101.87,-0 -184.576,-82.706 -184.576,-184.577l0,-3470.59c0,-101.871 82.706,-184.576 184.576,-184.576l3427.49,-0c101.871,-0 184.577,82.705 184.577,184.576Z" style="fill:#151c35;"/><path d="M1140.82,616.766l0,2052.45c0,307.299 -2.596,504.893 -7.787,592.783c-5.192,87.89 -28.815,167.244 -70.868,238.062c-42.054,70.818 -99.163,119.821 -171.329,147.01c-72.166,27.189 -180.934,40.784 -326.303,40.784l-328.64,-0l0,-536.825c39.458,3.794 68.012,5.691 85.664,5.691c46.726,-0 83.588,-13.911 110.585,-41.732c26.998,-27.821 42.573,-61.966 46.726,-102.433c4.154,-40.467 6.23,-118.873 6.23,-235.217l0,-2160.58l655.722,-0Z" style="fill:#ff8000;fill-rule:nonzero;"/><rect x="554.379" y="2164.64" width="827.051" height="529.237" style="fill:#ff8000;fill-rule:nonzero;"/><path d="M1376.94,616.766l660.395,-0c178.597,-0 315.92,17.072 411.967,51.216c96.048,34.144 168.214,83.464 216.498,147.959c48.283,64.495 80.991,142.584 98.124,234.268c17.133,91.684 25.7,233.635 25.7,425.855l-0,267.464c-0,196.014 -16.614,338.914 -49.841,428.701c-33.228,89.787 -94.231,158.708 -183.011,206.763c-88.779,48.055 -204.815,72.082 -348.109,72.082l-176.001,0l0,1236.78l-655.722,-0l0,-3071.09Zm655.722,525.443l0,781.525c18.691,1.265 34.785,1.897 48.284,1.897c60.224,0 102.018,-18.02 125.381,-54.062c23.363,-36.041 35.045,-110.969 35.045,-224.783l-0,-252.289c-0,-104.962 -13.499,-173.251 -40.496,-204.866c-26.997,-31.615 -83.069,-47.422 -168.214,-47.422Z" style="fill:#ff8000;fill-rule:nonzero;"/><path d="M3633.81,616.766l-0,2456.49l398.729,-0l-0,614.598l-1054.45,-0l0,-3071.09l655.722,-0Z" style="fill:#ff8000;fill-rule:nonzero;"/></g></g></svg>