<?xml version="1.0" standalone="no"?>
<!DOCTYPE svg PUBLIC "-//W3C//DTD SVG 20010904//EN"
 "http://www.w3.org/TR/2001/REC-SVG-20010904/DTD/svg10.dtd">
<svg version="1.0" xmlns="http://www.w3.org/2000/svg"
 width="700.000000pt" height="700.000000pt" viewBox="0 0 700.000000 700.000000"
 preserveAspectRatio="xMidYMid meet">
<metadata>
Created by potrace 1.14, written by Peter Selinger 2001-2017
</metadata>
<g transform="translate(0.000000,700.000000) scale(0.100000,-0.100000)"
fill="#000000" stroke="none">
<path d="M604 6593 c-71 -21 -141 -77 -178 -143 l-31 -55 0 -2285 0 -2285 90
-3 c121 -4 168 10 227 69 91 91 83 -110 86 2122 l2 1967 535 0 535 0 0 -1270
0 -1270 195 0 195 0 0 1271 0 1270 718 -4 c677 -4 723 -5 827 -25 152 -29 235
-56 337 -110 236 -123 357 -327 405 -681 15 -107 17 -217 18 -731 0 -631 -4
-709 -45 -887 -78 -335 -324 -515 -753 -552 -71 -6 -198 -11 -283 -11 l-154 0
0 -1015 0 -1015 -535 0 -535 0 0 820 0 820 -193 0 -193 0 -11 -507 c-13 -580
-16 -601 -100 -773 -88 -178 -220 -278 -423 -320 -117 -25 -374 -39 -702 -40
l-248 0 0 -198 c0 -243 7 -271 89 -352 100 -100 -231 -90 3025 -90 3224 0
2912 -8 3010 81 33 30 63 69 77 101 l24 53 3 2865 c1 1797 -1 2888 -7 2928
-18 115 -79 199 -180 246 l-46 21 -2865 2 c-2528 1 -2871 0 -2916 -14z m5356
-2628 l0 -2015 325 0 325 0 0 -500 0 -500 -860 0 -860 0 0 2515 0 2515 535 0
535 0 0 -2015z"/>
<path d="M3330 4486 l0 -646 83 0 c141 0 207 47 244 173 21 70 31 746 13 873
-25 173 -83 226 -267 241 l-73 6 0 -647z"/>
</g>
</svg>
